<svg xmlns="http://www.w3.org/2000/svg" viewBox="0 0 199.67 200.97"><title>Fichier 4</title><g id="Calque_2" data-name="Calque 2"><g id="Calque_1-2" data-name="Calque 1"><path d="M99.74,201a1.51,1.51,0,0,1-1.26-.68,1.73,1.73,0,0,1-.18-.39C97.23,196.72,71.43,122,1.5,122a1.5,1.5,0,0,1,0-3c29.92,0,56.53,13.56,76.94,39.21a148.93,148.93,0,0,1,19.8,33.3l0-190a1.5,1.5,0,0,1,3,0l0,198a1.5,1.5,0,0,1-1.08,1.44A1.52,1.52,0,0,1,99.74,201Z"/><path d="M99.93,201a1.53,1.53,0,0,1-.82-.24,1.51,1.51,0,0,1-.59-1.77,145.43,145.43,0,0,1,22.71-40.78c20.41-25.65,47-39.21,76.94-39.21a1.5,1.5,0,0,1,0,3c-69.94,0-95.74,74.75-96.8,77.93a1.73,1.73,0,0,1-.18.39A1.51,1.51,0,0,1,99.93,201Z"/></g></g></svg>