<?xml version="1.0" encoding="utf-8"?>
<!-- Generator: Adobe Illustrator 24.0.1, SVG Export Plug-In . SVG Version: 6.00 Build 0)  -->
<svg version="1.1" id="Calque_1" xmlns="http://www.w3.org/2000/svg" xmlns:xlink="http://www.w3.org/1999/xlink" x="0px" y="0px"
	 viewBox="0 0 100 97.1" style="enable-background:new 0 0 100 97.1;" xml:space="preserve">
<path d="M89.6,19.6H25.1c-6.7-2.6-8.5-3.6-11.2-6c-1.6-1.4-3.7-2.1-5.6-1.8C7.3,12,6.5,12.4,6,13c-0.6,0.6-0.9,1.3-0.9,2.3
	c0,1.7,1.2,3.4,3.2,4.6c3,1.8,4.8,2.8,8.7,7.4c3,8.3,7.4,20.5,8.4,22.9c0.4,0.9,1,2.5,2.1,3.9c-1.4,1.9-2.2,4.1-2.2,6.6
	c0,3.1,1.3,5.9,3.4,8c-1.5,2-2.4,4.5-2.4,7.3c0,6.8,5.5,12.2,12.2,12.2c5,0,9.3-3,11.2-7.3H64c1.9,4.3,6.2,7.3,11.2,7.3
	c6.8,0,12.2-5.5,12.2-12.2c0-6.8-5.5-12.2-12.2-12.2c-5.6,0-10.3,3.8-11.7,9H50.2c-1.4-5.2-6.1-9-11.7-9c-1.9,0-3.7,0.5-5.3,1.3
	c-1-1.2-1.6-2.7-1.6-4.4c0-1.5,0.5-3,1.4-4.2h48.7c3-0.3,4.2-2.7,4.8-4.4c0,0,8.2-25.5,8.3-25.8C96.5,20.5,91.6,19.6,89.6,19.6z
	 M75.2,71c2.7,0,4.9,2.2,4.9,4.9c0,2.7-2.2,4.9-4.9,4.9c-2.7,0-4.9-2.2-4.9-4.9C70.3,73.2,72.5,71,75.2,71z M38.5,71
	c2.7,0,4.9,2.2,4.9,4.9c0,2.7-2.2,4.9-4.9,4.9c-2.7,0-4.9-2.2-4.9-4.9C33.6,73.2,35.7,71,38.5,71z M79.6,46.3c0,0-0.5,1.7-4.6,1.9
	H36.5c-1.2,0.1-3.8-1.2-4.7-3.2c0,0-6-17.2-6-17.2h60L79.6,46.3z"/>
</svg>
