<?xml version="1.0" encoding="utf-8"?>
<!-- Generator: Adobe Illustrator 24.0.1, SVG Export Plug-In . SVG Version: 6.00 Build 0)  -->
<svg version="1.1" id="Calque_1" xmlns="http://www.w3.org/2000/svg" xmlns:xlink="http://www.w3.org/1999/xlink" x="0px" y="0px"
	 viewBox="0 0 100 97.1" style="enable-background:new 0 0 100 97.1;" xml:space="preserve">
<style type="text/css">
	.st0{display:none;fill:#987D7B;stroke:#000000;stroke-miterlimit:10;}
	.st1{display:none;fill:#987D7B;}
	.st2{fill:#987D7B;}
	.st3{fill:none;stroke:#987D7B;stroke-width:3;stroke-miterlimit:10;}
	.st4{fill:none;stroke:#987D7B;stroke-width:4;stroke-linecap:round;stroke-miterlimit:10;}
	.st5{fill:none;stroke:#987D7B;stroke-width:4;stroke-miterlimit:10;}
</style>
<rect x="-13.1" y="-13" class="st0" width="134.8" height="121.5"/>
<path class="st1" d="M89.6,19.6H25.1c-6.7-2.6-8.5-3.6-11.2-6c-1.6-1.4-3.7-2.1-5.6-1.8C7.3,12,6.5,12.4,6,13
	c-0.6,0.6-0.9,1.3-0.9,2.3c0,1.7,1.2,3.4,3.2,4.6c3,1.8,4.8,2.8,8.7,7.4c3,8.3,7.4,20.5,8.4,22.9c0.4,0.9,1,2.5,2.1,3.9
	c-1.4,1.9-2.2,4.1-2.2,6.6c0,3.1,1.3,5.9,3.4,8c-1.5,2-2.4,4.5-2.4,7.3c0,6.8,5.5,12.2,12.2,12.2c5,0,9.3-3,11.2-7.3H64
	c1.9,4.3,6.2,7.3,11.2,7.3c6.8,0,12.2-5.5,12.2-12.2c0-6.8-5.5-12.2-12.2-12.2c-5.6,0-10.3,3.8-11.7,9H50.2c-1.4-5.2-6.1-9-11.7-9
	c-1.9,0-3.7,0.5-5.3,1.3c-1-1.2-1.6-2.7-1.6-4.4c0-1.5,0.5-3,1.4-4.2h48.7c3-0.3,4.2-2.7,4.8-4.4c0,0,8.2-25.5,8.3-25.8
	C96.5,20.5,91.6,19.6,89.6,19.6z M75.2,71c2.7,0,4.9,2.2,4.9,4.9c0,2.7-2.2,4.9-4.9,4.9c-2.7,0-4.9-2.2-4.9-4.9
	C70.3,73.2,72.5,71,75.2,71z M38.5,71c2.7,0,4.9,2.2,4.9,4.9c0,2.7-2.2,4.9-4.9,4.9s-4.9-2.2-4.9-4.9S35.7,71,38.5,71z M79.6,46.3
	c0,0-0.5,1.7-4.6,1.9H36.5c-1.2,0.1-3.8-1.2-4.7-3.2l-6-17.2h60L79.6,46.3z"/>
<g>
	<g>
		<path class="st2" d="M35.1,66.7c2.5,0,4.5,2,4.5,4.5s-2,4.5-4.5,4.5s-4.5-2-4.5-4.5c0-1.2,0.5-2.3,1.3-3.2
			C32.7,67.2,33.9,66.7,35.1,66.7 M35.1,63c-2.3,0-4.4,0.9-5.9,2.5c-1.5,1.5-2.3,3.5-2.3,5.8c0,4.6,3.7,8.2,8.2,8.2
			c4.6,0,8.2-3.7,8.2-8.2C43.4,66.7,39.7,63,35.1,63L35.1,63z"/>
	</g>
	<g>
		<path class="st2" d="M67.2,66.7c2.5,0,4.5,2,4.5,4.5s-2,4.5-4.5,4.5s-4.5-2-4.5-4.5S64.7,66.7,67.2,66.7 M67.2,63
			c-4.6,0-8.2,3.7-8.2,8.2s3.7,8.2,8.2,8.2s8.2-3.7,8.2-8.2S71.8,63,67.2,63L67.2,63z"/>
	</g>
	<line class="st3" x1="59.7" y1="71.2" x2="42.6" y2="71.2"/>
	<line class="st4" x1="23.5" y1="30.7" x2="14.3" y2="24.7"/>
	<path class="st2" d="M79.2,32.3l-7.6,20.5h-39l-6.6-20.5H79.2 M79.6,28.7H20.7l9.5,27.8h44.4L83,33.7
		C83.9,31.3,82.1,28.7,79.6,28.7L79.6,28.7z"/>
	<path class="st5" d="M32.4,54.4c0,0-10.8,2-0.8,11.9"/>
</g>
</svg>
