<svg xmlns="http://www.w3.org/2000/svg" viewBox="0 0 224.43 226.81"><defs><style>.cls-1{fill:#c97062;}</style></defs><title>Fichier 3</title><g id="Calque_2" data-name="Calque 2"><g id="Calque_1-2" data-name="Calque 1"><path class="cls-1" d="M96.3,49.07a24.64,24.64,0,0,0-2.84-2S94.53,47.8,96.3,49.07Z"/><path class="cls-1" d="M128.88,178.43a21.16,21.16,0,0,0,2.44,1.7S130.41,179.52,128.88,178.43Z"/><path class="cls-1" d="M124.13,120.83c6.87-13.39,8.31-22.9,6.52-30.9C128.16,73.4,104.55,55,96.3,49.07c7,5.59,23.18,23.27,4.35,57.31-5.93,10.72-7.73,19.86-6.73,27.87-.27,17.52,26.63,38.2,35,44.18C122.36,173.27,106.12,155.93,124.13,120.83Z"/><path d="M64.61,13l.54,2.43-.14.08c-2.63-2.08-4.66-2.31-6.26-1.44-2,1.08-2.54,2.84-2,4.12,1.81,4.25,9.76-1.79,12.51,3.26,1.3,2.41.06,5.28-2.81,6.84a9.47,9.47,0,0,1-6.56,1l-.65-2.64.14-.07c2.15,1.5,5,2.32,7.68.88,1.72-.94,2.55-2.83,2-4.19-1.81-4.59-9.76,1.51-12.52-3.57-.89-1.64-.68-4.39,2.57-6.16A9.09,9.09,0,0,1,64.61,13Z"/><path d="M79.1,22.14A5.46,5.46,0,0,0,81.69,18l.15,0a5.7,5.7,0,0,1-3.32,4.75c-2.9,1.3-6.48.83-7.93-2.68-1.55-3.66,1.15-6.7,3.51-7.62a11,11,0,0,1,4.5-.42L79,14l-.13,0c-1-1.09-3.76-2.15-5.59-.89-2.41,1.61-2.07,5.38-.17,7.6A4.8,4.8,0,0,0,79.1,22.14Z"/><path d="M89.52,9.23l-.85,2.27-.18,0c-.38-1.26-1.43-2.74-2.59-2.24-2.09.91-.86,6.72-.36,8.61l.23.87c.21.77.45,1.07.84,1.18l0,.15-2.76.73,0-.15c.31-.3.37-.67.17-1.45l-2-7.51c-.21-.78-.34-1-.8-.93l0-.16,2-1,.18,0,1.58,6c-.49-2.75-.74-6.18,1.62-6.81A3.2,3.2,0,0,1,89.52,9.23Z"/><path d="M103,10.87a6.19,6.19,0,0,1-5.26,7c-3.08.46-6-1-6.45-4.19a6.12,6.12,0,0,1,5.26-7C99.62,6.21,102.54,7.73,103,10.87Zm-2-.44c-1.21-2.61-3.64-4.23-6.12-3.09s-2.76,4.09-1.55,6.73,3.64,4.24,6.12,3.08S102.21,13.06,101,10.43Z"/><path d="M108,16.51s0,.16,0,.16l-2.83.17s0-.11,0-.16c.33-.23.47-.58.42-1.38L104.76,2c-.05-.8-.13-1-.57-1.07V.77l2.13-.62h.16l.91,15.05C107.43,16,107.61,16.32,108,16.51Z"/><path d="M112.25,16.41v.16l-2.83.05v-.16c.34-.21.5-.56.48-1.37L109.67,1.8c0-.8-.08-1-.52-1.09V.52L111.3,0h.16l.26,15.06C111.74,15.87,111.9,16.21,112.25,16.41Z"/><path d="M129.94,18l-2.3-.28.74-6.12c-.76,2.6-2.36,6.06-5.55,5.68a4.51,4.51,0,0,1-3.68-5c.55-5.66,5.91-6,8.44-5.68a4.7,4.7,0,0,1,1.35.38L129.42,3c.09-.8.05-1-.4-1.16,0-.05,0-.18,0-.18l2.23-.22.16,0-1.81,15c-.09.8,0,1.16.34,1.41A1.32,1.32,0,0,1,129.94,18Zm-1.4-7.74.39-3.2a5.2,5.2,0,0,0-1.35-.37c-2.22-.22-6.31.25-6.69,6.11-.13,2,1,4.32,3,4.19C126.52,16.79,128.31,12.16,128.54,10.25Z"/><path d="M144.13,15.42a6.19,6.19,0,0,1-7.56,4.34c-3-.78-5.1-3.26-4.29-6.38A6.11,6.11,0,0,1,139.84,9C142.82,9.81,144.92,12.35,144.13,15.42Zm-1.69-1.2c-.09-2.87-1.69-5.3-4.42-5.22s-4.14,2.68-4.05,5.58,1.68,5.32,4.42,5.22S142.52,17.12,142.44,14.22Z"/><path d="M162.39,17.37l-.07.17A9.7,9.7,0,0,0,158.79,20l-4,4.14-.06,2-1.68-.7s.29-7.93.3-8.25l-4.11,4.86v1.77l-1.67-.71V15.82c0-2.46-.07-3.56-.75-4.84l.08-.17,3.26,1.38-.08.17c-.79.34-.84,1-.85,2.38v7L153.37,17a6.48,6.48,0,0,0-.58-3.45l.07-.17,3.26,1.38-.07.17c-.92.39-.93,1.18-1,3l-.2,6,3.33-3.49c1.59-1.64,2.28-2.73,1.65-3.89l.07-.17Z"/><path d="M168.24,33.83l-.08.14-2.43-1.49.08-.14c.42,0,.71-.27,1-1l2.61-5.25c.77-1.56,1.07-3.67-.82-4.37-2.46-.92-5.39,2.92-6.4,4.57l-1,1.61c-.42.68-.46,1.06-.26,1.43l-.08.14L158.48,28l.08-.13c.4,0,.72-.21,1.14-.89l4.07-6.63c.42-.68.48-.91.15-1.2L164,19l2.11.7.14.09-3,4.85c1.6-2,3.91-4.29,6.45-2.72,1.61,1,2.31,2.92,1.1,5.42-1,2-2,4.2-2.41,5S168.05,33.48,168.24,33.83Z"/><path d="M191.09,34.82,189,36.14l-.12-.11c1.08-3.16.61-5.16-.74-6.37-1.69-1.52-3.53-1.44-4.55-.51-3.4,3.13,5,8.6,1.11,12.87-1.83,2-5,1.83-7.38-.35a9.5,9.5,0,0,1-3.11-5.86l2.27-1.49.12.11c-.7,2.53-.51,5.51,1.73,7.53,1.46,1.3,3.52,1.45,4.62.5,3.72-3.25-4.68-8.69-.82-13,1.24-1.39,3.9-2.12,6.66.36A9.18,9.18,0,0,1,191.09,34.82Z"/><path d="M187.35,51.52a5.42,5.42,0,0,0,4.73,1l0,.15a5.75,5.75,0,0,1-5.6-1.52c-2.19-2.3-3-5.83-.14-8.38s6.71-1.17,8.36.75a11,11,0,0,1,1.91,4.09l-1.67,1-.09-.1c.69-1.32.76-4.27-1-5.57-2.33-1.73-5.76-.14-7.22,2.39A4.82,4.82,0,0,0,187.35,51.52Z"/><path d="M203,57l-2.43,0v-.18c1-.78,2.09-2.28,1.23-3.2-1.56-1.66-6.62,1.46-8.23,2.57l-.74.51c-.66.46-.86.78-.83,1.19l-.13.09-1.62-2.35.13-.09c.38.18.76.12,1.42-.34l6.4-4.41c.67-.45.82-.64.61-1.06l.14-.09,1.64,1.49.1.16-5.07,3.49c2.42-1.39,5.57-2.78,7-.77A3.23,3.23,0,0,1,203,57Z"/><path d="M206,70.2a6.2,6.2,0,0,1-8.33-2.6c-1.47-2.73-1.06-5.95,1.77-7.48a6.12,6.12,0,0,1,8.33,2.59C209.25,65.43,208.81,68.69,206,70.2Zm-.27-2c2.05-2,2.74-4.85.83-6.8s-4.78-1.21-6.85.82S197,67,198.9,69,203.68,70.18,205.75,68.15Z"/><path d="M202.39,76.81l-.14.06-1.12-2.6.15-.06c.33.23.71.25,1.45-.07L215,68.91c.74-.32.93-.47.82-.9l.17-.07,1.29,1.8.07.14-13.86,5.93C202.7,76.13,202.45,76.41,202.39,76.81Z"/><path d="M203.92,80.79l-.15,0-1-2.64.15-.06c.32.25.7.28,1.45,0l12.45-4.68c.75-.28.94-.43.85-.86l.17-.07,1.22,1.86.06.15L205,79.83C204.26,80.12,204,80.39,203.92,80.79Z"/><path d="M208.36,98l-.51-2.27,6-1.34c-2.7.15-6.5-.2-7.21-3.34a4.52,4.52,0,0,1,3.52-5.15c5.51-1.37,7.61,3.58,8.17,6.07a5.32,5.32,0,0,1,.1,1.39l3.86-.86c.78-.18,1-.3,1-.76l.18,0,1,2,0,.15-14.7,3.29c-.79.18-1.09.41-1.21.79Zm6.83-3.91,3.14-.7a4.66,4.66,0,0,0-.1-1.4c-.53-2.16-2.34-5.86-8-4.26-1.92.55-3.73,2.39-2.94,4.24C208.35,94.38,213.31,94.52,215.19,94.1Z"/><path d="M215.52,110.5a6.18,6.18,0,0,1-6.62-5.67c-.27-3.09,1.37-5.89,4.58-6.17a6.1,6.1,0,0,1,6.62,5.66C220.37,107.39,218.68,110.22,215.52,110.5Zm.56-2c2.68-1,4.44-3.37,3.45-5.91s-3.91-3-6.61-2-4.46,3.38-3.45,5.92S213.38,109.56,216.08,108.51Z"/><path d="M219.83,128.34h-.19a9.84,9.84,0,0,0-3.47-2.51l-5.23-2.35-1.95.63.1-1.81,7.86-2.5L211,117.56l-1.67.59.1-1.81,6.87-2.47c2.3-.83,3.32-1.26,4.3-2.33h.19l-.21,3.54h-.18c-.59-.64-1.22-.46-2.53,0l-6.64,2.39,6,2.25a6.32,6.32,0,0,0,3-1.72h.19l-.2,3.54H220c-.67-.73-1.42-.47-3.13,0l-5.73,1.84,4.4,2c2.09.94,3.34,1.22,4.23.24H220Z"/><path d="M206.31,139.4l-.15,0,.58-2.79.16,0c.13.4.49.57,1.25.66L214,138c1.72.2,3.81-.24,3.83-2.25,0-2.63-4.57-4.08-6.46-4.48l-1.85-.39c-.78-.16-1.15-.08-1.43.24l-.16,0,.59-2.79.15,0c.13.38.44.61,1.23.77l7.6,1.6c.79.16,1,.14,1.19-.27l.16,0,.05,2.22,0,.16-5.58-1.17c2.46.82,5.36,2.23,4.75,5.15-.39,1.85-2,3.16-4.73,2.86l-5.5-.58C206.94,139,206.59,139.1,206.31,139.4Z"/><path d="M213.08,161.25l-2-1.54.06-.15c3.35-.05,5.08-1.16,5.77-2.84.86-2.11.17-3.81-1.06-4.46-4.09-2.15-6.43,7.56-11.75,5.38-2.53-1-3.39-4-2.15-7.08a9.51,9.51,0,0,1,4.47-4.9l2.17,1.63-.06.15c-2.62.2-5.37,1.38-6.51,4.17-.74,1.81-.19,3.8,1.08,4.52,4.31,2.41,6.61-7.33,12-5.14,1.73.71,3.31,3,1.91,6.4A9.13,9.13,0,0,1,213.08,161.25Z"/><path d="M196.09,163.32a5.39,5.39,0,0,0,.59,4.81l-.13.09a5.75,5.75,0,0,1-.43-5.79c1.43-2.84,4.5-4.74,7.84-2.94,3.51,1.87,3.35,5.93,2.09,8.13a10.67,10.67,0,0,1-3.21,3.17l-1.48-1.24.06-.12c1.48.2,4.28-.72,4.91-2.85.84-2.78-1.81-5.47-4.69-6A4.78,4.78,0,0,0,196.09,163.32Z"/><path d="M196.17,179.92l-.78-2.3.17-.08c1.09.73,2.85,1.21,3.43.1,1-2-3.59-5.75-5.18-6.9l-.72-.53c-.66-.47-1-.54-1.4-.38l-.13-.1,1.67-2.31.13.1c-.05.42.14.75.79,1.22l6.3,4.56c.65.47.88.55,1.2.22l.13.09-.85,2-.11.15-5-3.61c2.12,1.81,4.48,4.32,3.06,6.29A3.23,3.23,0,0,1,196.17,179.92Z"/><path d="M184.72,187.17a6.18,6.18,0,0,1-.34-8.71c2.08-2.3,5.25-3,7.64-.84a6.1,6.1,0,0,1,.34,8.71C190.29,188.62,187.07,189.3,184.72,187.17Zm1.84-.94c2.59,1.26,5.49,1,6.68-1.49s-.46-4.91-3.06-6.18-5.5-1-6.68,1.49S184,185,186.56,186.23Z"/><path d="M177.3,186l-.11-.12,2.08-1.92a.91.91,0,0,0,.11.12c-.12.39,0,.75.55,1.34l9,9.75c.54.6.75.72,1.12.47l.12.14L189,197.56l-.12.11-10.24-11C178.05,186,177.69,185.88,177.3,186Z"/><path d="M174.05,188.75l-.1-.12,2.15-1.83.11.12c-.13.38,0,.75.49,1.37l8.6,10.14c.52.61.72.74,1.1.51l.12.14-1.34,1.77-.12.11-9.75-11.5C174.79,188.85,174.45,188.69,174.05,188.75Z"/><path d="M159.35,198.74l2-1.24,3.3,5.2c-1.06-2.49-2-6.18.7-7.91a4.51,4.51,0,0,1,6,1.57c3.15,4.72-.8,8.37-2.95,9.74a4.94,4.94,0,0,1-1.28.56l2.12,3.34c.43.68.61.84,1,.65l.1.16-1.59,1.58-.14.08-8.06-12.72c-.43-.68-.75-.89-1.16-.88Zm6,5.11,1.72,2.72a5.41,5.41,0,0,0,1.28-.57c1.86-1.23,4.72-4.19,1.31-9-1.17-1.63-3.51-2.7-5-1.33C162.76,197.5,164.3,202.21,165.34,203.85Z"/><path d="M150,209.7a6.17,6.17,0,0,1,3.1-8.14c2.82-1.31,6-.7,7.36,2.22a6.11,6.11,0,0,1-3.1,8.14C154.56,213.22,151.33,212.58,150,209.7Zm2.06-.14c1.89,2.17,4.67,3,6.73,1.24s1.5-4.69-.39-6.88-4.68-3.06-6.74-1.25S150.16,207.37,152.06,209.56Z"/><path d="M134.61,219.75l-.05-.18a9.6,9.6,0,0,0,1.19-4.11l.46-5.72L135,208.12l1.75-.51,5,6.57.11-6.36-1.12-1.38,1.74-.51,4.63,5.65c1.56,1.89,2.3,2.71,3.64,3.27l.05.18-3.4,1,0-.18c.4-.77,0-1.3-.84-2.39L142,208l-.13,6.36a6.46,6.46,0,0,0,2.63,2.3l.06.18-3.4,1-.06-.18c.47-.88,0-1.5-1.09-2.94l-3.66-4.78-.36,4.81c-.2,2.28,0,3.56,1.18,4.06l.05.18Z"/><path d="M119.69,210.7l0-.16,2.83-.38a1.32,1.32,0,0,1,0,.16c-.34.25-.37.65-.2,1.39s1,4.55,1.3,5.72c.39,1.69,1.5,3.52,3.41,2.86,2.48-.84,2.32-5.67,2.06-7.59l-.25-1.87c-.11-.79-.32-1.11-.71-1.27,0-.05,0-.16,0-.16l2.82-.38,0,.16c-.32.25-.43.61-.32,1.41l1,7.71c.11.79.21,1,.65,1a1.32,1.32,0,0,0,0,.16l-2.08.79-.15,0-.77-5.65c0,2.59-.31,5.8-3.27,6.2-1.87.25-3.64-.81-4.28-3.51-.53-2.18-1.08-4.54-1.29-5.37S120.05,210.86,119.69,210.7Z"/><path d="M101.37,224.41l.8-2.36h.16c1.17,3.14,2.79,4.39,4.61,4.47,2.27.1,3.64-1.13,3.84-2.5.65-4.57-9.28-3.5-9-9.25.12-2.73,2.67-4.55,5.93-4.4a9.5,9.5,0,0,1,6.13,2.55l-.81,2.59h-.16c-1.07-2.39-3.11-4.58-6.12-4.72-2-.08-3.64,1.11-3.89,2.54-.82,4.87,9.13,3.76,8.87,9.52-.08,1.86-1.68,4.12-5.38,4A9.1,9.1,0,0,1,101.37,224.41Z"/><path d="M93.67,209.12a5.42,5.42,0,0,0-4.33,2.18l-.12-.09a5.71,5.71,0,0,1,5.29-2.36c3.16.39,6,2.63,5.42,6.39-.57,3.94-4.45,5.15-6.94,4.71A10.79,10.79,0,0,1,88.92,218l.67-1.82.13,0c.31,1.45,2.12,3.78,4.34,3.65,2.89-.15,4.54-3.55,4.06-6.43A4.79,4.79,0,0,0,93.67,209.12Z"/><path d="M78.09,214.8l1.9-1.51.13.13c-.32,1.27-.18,3.09,1.06,3.26,2.27.3,4.21-5.32,4.76-7.19l.25-.87c.22-.77.16-1.14-.11-1.44l0-.15,2.74.79,0,.16c-.41.09-.66.38-.89,1.15l-2.17,7.47c-.23.77-.22,1,.2,1.2a1.66,1.66,0,0,1,0,.16l-2.21-.12-.18-.05,1.72-5.92c-1,2.61-2.56,5.67-4.9,5A3.21,3.21,0,0,1,78.09,214.8Z"/><path d="M67.4,206.45a6.18,6.18,0,0,1,8.09-3.24c2.87,1.18,4.59,3.94,3.36,6.91a6.11,6.11,0,0,1-8.09,3.25C67.91,212.19,66.18,209.38,67.4,206.45Zm1.5,1.42c-.31,2.86.94,5.49,3.65,5.8s4.48-2.09,4.8-5-.93-5.52-3.65-5.8S69.22,205,68.9,207.87Z"/><path d="M66.06,199.06l.07-.14,2.51,1.31-.08.14c-.4,0-.7.25-1.07,1l-6.17,11.78c-.37.71-.42.95-.06,1.21l-.09.17L59,213.92l-.14-.07,7-13.35C66.25,199.78,66.27,199.4,66.06,199.06Z"/><path d="M62.33,196.92l.08-.14,2.45,1.43-.08.13c-.4,0-.72.23-1.12.92L57,210.75c-.4.7-.46.93-.11,1.21l-.1.16-2.11-.67-.14-.08,7.57-13C62.49,197.65,62.53,197.28,62.33,196.92Z"/><path d="M48,186.4l1.83,1.43L46,192.69c2-1.83,5.16-4,7.69-2a4.5,4.5,0,0,1,.54,6.21c-3.4,4.55-8.15,2.05-10.16.47a4.72,4.72,0,0,1-1-1l-2.44,3.11c-.5.63-.59.86-.27,1.19l-.11.15-2-1-.13-.1,9.3-11.85c.5-.63.58-1,.44-1.38Zm-2.81,7.35-2,2.54a5.08,5.08,0,0,0,1,1c1.78,1.34,5.53,3,8.89-1.76,1.15-1.65,1.38-4.21-.41-5.15C50.31,189.2,46.39,192.23,45.2,193.75Z"/><path d="M34.56,181.29a6.18,6.18,0,0,1,8.71.19c2.18,2.22,2.68,5.43.38,7.68a6.11,6.11,0,0,1-8.72-.19C32.77,186.77,32.29,183.51,34.56,181.29Zm.82,1.9c-1.41,2.5-1.29,5.42,1.09,6.76s4.93-.16,6.35-2.69,1.31-5.43-1.08-6.76S36.81,180.66,35.38,183.19Z"/><path d="M19.92,170.2l.15-.11a9.8,9.8,0,0,0,4.27-.26l5.54-1.5L31,166.61l1.06,1.47L27.55,175l6-2,.92-1.52,1.07,1.47-3.76,6.25c-1.25,2.11-1.77,3.08-1.85,4.53l-.15.11-2.08-2.86.15-.11c.85.12,1.23-.41,2-1.6l3.62-6-6,2a6.5,6.5,0,0,0-1.27,3.26l-.15.11-2.08-2.87.15-.11c1,.14,1.4-.53,2.39-2l3.27-5-4.65,1.27c-2.21.59-3.36,1.17-3.42,2.49l-.15.11Z"/><path d="M23.37,153.06l.15-.08,1.31,2.53-.14.08c-.36-.23-.75-.13-1.39.28s-3.93,2.5-4.94,3.16c-1.46.93-2.8,2.59-1.54,4.16,1.63,2.06,6.12.27,7.84-.62l1.67-.86c.71-.38,1-.68,1-1.1l.14-.07,1.32,2.53-.15.07c-.34-.21-.72-.19-1.43.18l-6.9,3.58c-.72.37-.89.53-.75.95l-.14.08-1.45-1.69-.07-.14,5.06-2.63c-2.42.92-5.56,1.67-6.94-1-.86-1.68-.46-3.7,1.86-5.22,1.87-1.23,3.91-2.54,4.62-3S23.35,153.46,23.37,153.06Z"/><path d="M4.31,140.43l2.49,0,0,.16c-2.56,2.15-3.2,4.1-2.67,5.84.67,2.18,2.28,3.05,3.64,2.78,4.53-.92.2-9.92,5.7-11.6,2.62-.79,5.19,1,6.14,4.12a9.49,9.49,0,0,1-.36,6.63l-2.71.1-.05-.15c1.91-1.81,3.28-4.47,2.4-7.35-.57-1.87-2.25-3.06-3.69-2.81-4.87.85-.48,9.86-6,11.54-1.79.55-4.45-.2-5.53-3.75A9.2,9.2,0,0,1,4.31,140.43Z"/><path d="M16.17,128.08a5.44,5.44,0,0,0-3.51-3.36l.05-.14a5.71,5.71,0,0,1,4,4.2c.69,3.1-.49,6.52-4.21,7.24-3.91.77-6.34-2.48-6.76-5a10.9,10.9,0,0,1,.48-4.48l1.94,0,0,.14c-1.27.77-2.85,3.25-2,5.3,1.11,2.68,4.86,3.1,7.42,1.69A4.81,4.81,0,0,0,16.17,128.08Z"/><path d="M5.59,115.29l2.06,1.28-.08.17c-1.31.12-3,.86-2.71,2.09.47,2.23,6.41,2.19,8.37,2.07l.89-.05c.81,0,1.14-.23,1.33-.59h.16l.16,2.85h-.16c-.22-.35-.58-.49-1.38-.45l-7.76.46c-.81,0-1,.13-1.08.59H5.23l-.63-2.13v-.18l6.16-.36c-2.8-.07-6.21-.52-6.35-3A3.22,3.22,0,0,1,5.59,115.29Z"/><path d="M9.84,102.42a6.18,6.18,0,0,1,5.79,6.52c-.15,3.1-2.16,5.65-5.38,5.49a6.12,6.12,0,0,1-5.79-6.52C4.61,104.83,6.67,102.26,9.84,102.42ZM9,104.31c-2.8.67-4.86,2.73-4.23,5.39s3.47,3.51,6.29,2.84,4.88-2.73,4.22-5.39S11.84,103.64,9,104.31Z"/><path d="M16.36,98.65l.16,0-.39,2.8-.16,0c-.16-.37-.48-.58-1.28-.69L1.53,98.94c-.8-.11-1-.08-1.17.35l-.18,0L0,97.05l0-.15L14.94,99C15.74,99.07,16.1,99,16.36,98.65Z"/><path d="M17.1,94.45l.16,0-.51,2.78-.16,0c-.14-.38-.45-.6-1.24-.74L2.27,94.09c-.79-.15-1-.12-1.18.3l-.18,0L.82,92.14l0-.16L15.67,94.7C16.47,94.85,16.83,94.75,17.1,94.45Z"/><path d="M22.17,77.42l-.73,2.2-5.85-2C18,78.93,21.06,81.19,20,84.25a4.49,4.49,0,0,1-5.66,2.59c-5.43-1.66-4.68-7-3.87-9.41a4.79,4.79,0,0,1,.63-1.24L7.38,74.94c-.76-.25-1-.26-1.21.15L6,75l.23-2.23,0-.15,14.29,4.76c.76.25,1.14.21,1.45-.06Zm-7.87-.18-3.05-1a4.81,4.81,0,0,0-.63,1.24c-.67,2.13-1,6.23,4.65,7.78,1.94.52,4.43-.13,4.71-2.12C20.31,80.53,16.13,77.85,14.3,77.24Z"/><path d="M22.49,63a6.19,6.19,0,0,1,2.74,8.27c-1.36,2.8-4.22,4.35-7.11,2.93a6.11,6.11,0,0,1-2.75-8.27C16.72,63.17,19.63,61.62,22.49,63ZM21,64.42c-2.84-.48-5.54.6-6,3.29s1.8,4.59,4.66,5.09,5.56-.59,6-3.29S23.83,64.92,21,64.42Z"/><path d="M28.05,45.5l.15.1a9.7,9.7,0,0,0,1.68,3.94l3.26,4.72,2,.48-1,1.49-8-1.93,3.94,5,1.74.36-1,1.5L23.58,59.7c-2.41-.48-3.5-.64-4.9-.23l-.15-.11,2-2.92.15.1c.17.85.8,1,2.16,1.32l6.91,1.4-3.92-5a6.29,6.29,0,0,0-3.5-.11L22.19,54l2-2.92.16.11c.19,1,1,1.14,2.71,1.58l5.85,1.39-2.76-4c-1.29-1.89-2.22-2.77-3.49-2.39l-.15-.1Z"/><path d="M45.34,43l.12.11-1.94,2.09-.12-.11c.1-.41-.13-.75-.73-1.21L38,40.3c-1.38-1.06-3.39-1.77-4.45,0-1.39,2.22,1.8,5.86,3.22,7.17l1.38,1.29c.59.55,1,.67,1.35.54l.12.11-1.95,2.09-.12-.11c.09-.4-.05-.75-.64-1.3l-5.69-5.3c-.59-.55-.81-.66-1.15-.38L30,44.25l1.1-1.93.11-.12,4.18,3.89c-1.69-2-3.44-4.68-1.4-6.87,1.28-1.38,3.32-1.68,5.53,0l4.4,3.35C44.58,43.07,45,43.13,45.34,43Z"/></g></g></svg>